<svg width="171" height="36" viewBox="0 0 171 36" fill="none" xmlns="http://www.w3.org/2000/svg">
<path d="M128.654 32.0677C128.477 31.7066 128.286 31.3488 128.069 31.008C126.059 27.8592 124.502 24.4439 122.508 21.2817C121.673 19.9588 121.83 19.4188 123.129 18.6358C125.347 17.2893 126.656 15.3285 126.9 12.7535C127.194 9.68577 126.69 6.74966 123.871 5.00825C120.421 2.87535 116.593 1.81903 112.515 1.96415C110.602 2.03164 109.576 3.01035 109.239 4.86988C108.835 7.08377 109.209 9.32128 109.102 10.57C108.688 18.5818 108.822 25.6487 107.726 32.6414C107.476 34.2343 108.227 35.3413 109.516 35.5842C110.812 35.8306 112.282 35.0578 112.819 33.8293C113.133 33.1139 113.26 32.3444 113.334 31.5716C113.531 29.523 113.688 27.4711 113.915 25.426C114.032 24.346 114.93 23.6542 116.333 23.3572C117.328 23.1446 117.706 23.8668 118.116 24.508C119.449 26.5768 120.544 28.7671 121.583 30.9978C122.221 32.368 122.829 33.7652 123.744 34.9835C124.642 36.1748 126.66 36.3368 128.126 35.375C129.205 34.6764 129.385 33.5627 128.654 32.0677ZM120.167 14.9775C118.49 15.9495 117.008 17.2386 115.244 18.0486C114.149 18.5515 113.952 18.4165 113.928 17.2319C113.898 15.8178 113.921 14.4038 113.921 12.9897C113.828 11.5082 113.825 10.0266 114.135 8.5687C114.249 8.02872 114.499 7.77561 115.08 7.76549C116.456 7.73849 117.809 7.86673 119.125 8.28184C120.768 8.79818 121.46 10.0739 121.74 11.6668C121.997 13.1416 121.416 14.2553 120.167 14.9775Z" fill="#DF1D4E"/>
<path d="M5.19915 20.9037C5.85043 19.8811 6.83902 18.6662 7.84432 17.3061C8.81288 16.0001 10.0319 15.0821 11.4113 14.4409C13.2248 13.6006 14.6209 14.1102 15.3824 15.9866C15.9869 17.4783 16.1606 19.0509 16.1906 20.6472C16.1973 20.951 16.214 21.2547 16.2608 21.5551C16.3376 22.0579 16.568 22.095 16.912 21.7508C17.6067 21.0657 18.268 20.357 18.8425 19.5572C19.8444 18.1633 20.8664 16.7864 21.8984 15.4162C22.179 15.045 22.503 14.6839 22.8637 14.3937C24.4234 13.1483 26.454 13.4892 26.6845 15.8043C26.8414 17.3703 26.788 18.9092 26.5575 20.4447C26.0031 24.1503 26.0298 27.9166 25.412 31.6154C25.2517 32.5638 24.7273 33.2084 23.8823 33.5998C22.3627 34.3052 21.0434 33.6066 20.7362 31.9462C20.3087 29.6277 20.9599 27.3834 21.2438 25.1189C21.354 24.2414 21.3808 23.3707 21.3641 22.4933C21.3574 22.0174 21.1436 21.9702 20.8096 22.2435C20.3588 22.6114 20.0548 23.094 19.7676 23.5935C18.7089 25.4294 17.7704 27.3361 16.548 29.0708C15.703 30.2689 14.7545 31.3387 13.2248 31.6661C11.8321 31.9664 10.7133 31.1396 10.7233 29.6952C10.7366 28.0347 11.1742 26.4249 11.4013 24.7915C11.5716 23.5665 11.8922 22.3515 11.5983 21.0792C11.418 20.2962 11.1207 20.2996 10.5964 20.708C10.1355 21.0691 9.85157 21.5686 9.56435 22.0647C7.93784 24.8894 6.19443 27.6433 5.0188 30.7245C4.27401 32.6718 3.21194 33.2219 1.48189 33.016C0.803902 32.935 0.38642 32.6211 0.229447 31.9259C0.229447 31.9259 -0.241473 30.7144 0.16599 29.739C0.573452 28.7637 5.19915 20.9037 5.19915 20.9037Z" fill="#DF1D4E"/>
<path d="M105.044 32.098C104.413 28.8211 103.772 25.5441 103.13 22.2671C102.432 18.6932 101.744 15.1192 101.023 11.5487C100.539 9.1289 100.398 6.66528 100.034 4.22865C99.844 2.96646 99.2729 2.51761 98.2208 2.51086C96.2871 2.46361 95.3886 3.64818 94.7106 5.07911C93.9892 6.60453 93.6552 8.2717 93.0674 9.84774C91.5612 13.8874 89.9814 17.9001 88.5019 21.9533C87.3129 25.21 86.2007 28.4971 85.1186 31.7909C84.6443 33.2353 84.9883 33.9846 86.1138 34.4739C87.3663 35.0206 88.6789 34.6258 89.3168 33.4851C90.0783 32.1284 90.8297 30.7278 91.157 29.2328C91.7248 26.6578 93.0073 25.4564 95.736 25.2741C98.8387 25.0615 99.0424 25.0041 99.4733 28.1562C99.7204 29.955 99.854 31.7909 100.522 33.502C101.066 34.9025 101.744 35.2096 103.104 34.8013C104.633 34.3423 105.298 33.4277 105.044 32.098ZM97.2656 20.7755C96.5442 21.0623 95.7861 21.1737 95.0346 21.2412C94.1429 21.3964 93.869 21.0522 94.0727 20.1747C94.5437 18.1735 95.088 16.1958 95.8429 14.2857C95.9597 13.9887 96.0065 13.5364 96.4073 13.5499C96.7513 13.5634 96.7747 13.9853 96.8582 14.2587C97.4293 16.1047 97.5796 18.025 97.8201 19.9284C97.8802 20.3772 97.643 20.6236 97.2656 20.7755Z" fill="#DF1D4E"/>
<path d="M55.4907 2.94284C55.4406 6.36155 54.9029 9.73638 54.599 13.1315C54.4554 14.7143 54.4186 16.3004 54.3852 17.8866C54.3719 18.5649 54.5355 18.6493 55.1066 18.3051C56.997 17.1543 58.8606 15.9663 60.574 14.5556C61.2319 14.0123 61.9533 13.6984 62.795 13.9617C64.2612 14.424 64.682 15.7132 63.7635 16.9788C62.8584 18.2308 61.5626 19.0408 60.3268 19.8946C57.8754 21.5888 57.8353 21.798 59.7624 23.9613C61.2386 25.6184 62.7148 27.2686 64.3614 28.7637C65.0794 29.415 65.5737 30.2351 65.4969 31.2509C65.4301 32.1183 65.1396 32.9384 64.2745 33.3197C63.296 33.7483 62.3341 33.5661 61.5626 32.8574C60.5506 31.9259 59.6088 30.9168 58.6569 29.9213C57.4512 28.6591 56.2722 27.3699 55.0565 26.1145C54.7927 25.8445 54.5188 25.345 54.1047 25.5205C53.7373 25.6757 53.9477 26.1921 53.9343 26.5431C53.8842 27.9605 53.941 29.3779 53.6905 30.7886C53.4501 32.1284 52.4615 32.9586 51.0754 32.9215C49.9466 32.8945 49.332 32.233 49.2352 30.7211C49.0748 28.2608 49.2953 25.804 49.4155 23.3471C49.6894 17.7482 50.1069 12.1595 50.6847 6.58429C50.8483 5.01499 50.8851 3.41869 51.4461 1.90339C51.7367 1.12043 52.2243 0.590583 52.9791 0.273349C54.6491 -0.431991 55.661 0.2531 55.5675 2.03501C55.5441 2.33875 55.5141 2.63911 55.4907 2.94284Z" fill="#DF1D4E"/>
<path d="M44.5193 12.6691C43.838 11.8085 43.0464 11.1606 41.8741 11.0323C38.3205 10.6375 35.4883 12.3924 32.6962 14.1777C31.6909 14.8223 31.6174 16.2194 32.2353 17.1914C32.7196 17.9609 33.5879 18.0655 34.8437 17.4546C36.0795 16.8573 37.2852 16.2026 38.6011 15.7942C40.4346 15.2272 41.7205 16.2532 41.6771 18.214C41.657 19.0779 41.2796 19.6246 40.4413 19.8069C39.4293 20.033 38.404 20.1309 37.3687 20.2017C34.63 20.3975 32.2019 21.2884 30.4685 23.5665C29.0624 25.4226 29.1593 27.7816 30.6422 29.5095C32.8632 32.1014 35.7321 33.6505 38.9417 34.5144C41.6971 35.2535 43.2167 34.2748 44.0384 31.4939C44.2354 30.8156 44.3991 30.1271 44.546 29.4353C45.3242 25.8107 46.069 22.1828 46.246 18.6021C46.2126 16.3646 45.8619 14.3633 44.5193 12.6691ZM41.0124 25.1526C40.8788 26.2494 40.8955 27.3665 40.4447 28.4127C40.114 29.1788 39.5897 29.4825 38.7747 29.2632C37.4522 28.9054 36.1162 28.568 35.0875 27.5724C33.7249 26.2528 33.942 25.2539 35.6887 24.616C36.8042 24.2077 37.9732 24.1908 38.905 24.0896C39.4661 24.0896 39.7967 24.0626 40.1274 24.0963C40.7419 24.1604 41.0993 24.4304 41.0124 25.1526Z" fill="#DF1D4E"/>
<path d="M158.248 13.2293C157.567 12.3688 156.775 11.7208 155.603 11.5925C152.049 11.1977 149.217 12.9526 146.425 14.7379C145.42 15.3825 145.346 16.7797 145.964 17.7516C146.448 18.5211 147.317 18.6257 148.573 18.0149C149.808 17.4175 151.014 16.7628 152.33 16.3544C154.163 15.7875 155.449 16.8134 155.406 18.7742C155.386 19.6382 155.008 20.1849 154.17 20.3671C153.158 20.5932 152.133 20.6911 151.097 20.762C148.359 20.9577 145.931 21.8487 144.197 24.1267C142.791 25.9828 142.888 28.3419 144.371 30.0698C146.592 32.6616 149.461 34.2107 152.671 35.0746C155.426 35.8137 156.946 34.835 157.767 32.0542C157.964 31.3758 158.128 30.6874 158.275 29.9955C159.053 26.3709 159.798 22.743 159.975 19.1623C159.941 16.9282 159.591 14.9235 158.248 13.2293ZM154.741 25.7129C154.608 26.8097 154.624 27.9267 154.173 28.9729C153.843 29.739 153.318 30.0428 152.504 29.8234C151.181 29.4657 149.845 29.1282 148.816 28.1326C147.454 26.813 147.671 25.8141 149.418 25.1763C150.533 24.7679 151.702 24.751 152.634 24.6498C153.195 24.6498 153.526 24.6228 153.856 24.6565C154.471 24.724 154.828 24.994 154.741 25.7129Z" fill="#DF1D4E"/>
<path d="M73.3623 27.1168C76.0442 26.3946 78.6493 25.453 81.2043 24.3697C82.7106 23.7318 83.5088 22.3346 83.2349 20.7147C82.8876 18.6763 82.0359 16.8472 80.7033 15.288C79.4642 13.8334 77.8277 13.118 75.9273 13.0876C70.5034 13.0032 66.1716 17.5255 66.1716 23.2425C66.1716 28.4768 68.1855 31.5716 72.9381 33.2961C75.8271 34.3457 78.6159 33.7315 81.2076 32.1993C82.0893 31.6796 82.2797 30.4376 81.7587 29.496C81.3279 28.7198 80.5998 28.5207 79.5744 28.9122C79.1703 29.0641 78.7662 29.2294 78.3721 29.4083C76.5552 30.2385 74.8485 29.7424 73.1719 28.9594C72.6676 28.7232 72.1867 28.3014 72.2301 27.7513C72.2702 27.2012 72.9515 27.2282 73.3623 27.1168ZM72.1466 22.9995C71.0678 23.2357 70.9008 23.0332 70.9309 21.9499C70.991 19.6112 73.202 17.5221 75.5332 17.593C76.8357 17.6369 78.1717 18.7843 78.4856 20.087C78.5725 20.4515 78.3921 20.6742 78.1951 20.8902C77.8277 21.2884 77.3868 21.6259 76.8758 21.7677C75.3061 22.2132 73.7364 22.6519 72.1466 22.9995Z" fill="#DF1D4E"/>
<path d="M134.024 35.8137C131.773 35.8441 130.481 34.2444 130.981 32.0508C131.249 30.8865 131.703 29.8031 132.484 28.902C133.403 27.8457 134.568 27.2686 135.958 27.6702C137.28 28.0516 137.808 29.199 137.905 30.4578C138.052 32.3916 137.354 34.025 135.801 35.2197C135.293 35.6112 134.669 35.7732 134.024 35.8137Z" fill="#DF1D4E"/>
<path d="M163.224 31.9597C163.562 29.2125 163.919 26.2326 164.29 23.256C164.524 21.3863 164.6 19.4863 165.248 17.6909C165.9 15.8752 167.453 15.0382 168.899 15.7166C169.954 16.2093 170.315 16.81 170.058 17.9845C169.517 20.4548 169.016 22.9252 168.749 25.4428C168.542 27.3901 168.455 29.3408 168.431 31.2982C168.408 33.1273 167.773 33.9306 166.03 34.3997C164.183 34.8924 163.184 34.106 163.224 31.9597Z" fill="#DF1D4E"/>
<path d="M171 9.99286C171.023 11.3934 169.827 12.4666 168.177 12.5206C166.905 12.5611 166.04 11.8254 166.01 10.6712C165.97 9.17277 167.192 7.85321 168.662 7.80934C170.058 7.76547 170.976 8.62605 171 9.99286Z" fill="#DF1D4E"/>
</svg>
